<svg class="w-24" xmlns="http://www.w3.org/2000/svg" viewBox="0 0 77.36 58.69">
  <style type="text/css">
    .st0{fill:#FFFFFF;}
    .st1{opacity:0.78;fill:#FFFFFF;}
    .st2{opacity:0.64;fill:#FFFFFF;}
    .st3{opacity:0.4;fill:#FFFFFF;}
    .st4{opacity:0.47;fill:#FFFFFF;}
    .st5{opacity:0.44;fill:#FFFFFF;}
    .st6{opacity:0.14;fill:#FFFFFF;}
    .st7{opacity:0.85;fill:#FFFFFF;}
  </style>
  <g>
    <path class="st0" d="M21.39,23.59l12.66-0.97l1.22,15.92c0.4,5.17-0.64,9.48-3.09,12.94c-1.41,1.99-3.28,3.63-5.6,4.92
      c-2.32,1.29-4.74,2.03-7.27,2.23c-5.03,0.39-9.41-0.98-13.12-4.1c-3.71-3.12-5.76-7.14-6.14-12.06c-0.36-4.76,1.03-9.01,4.2-12.75
      c3.16-3.74,7.09-5.79,11.79-6.15c0.74-0.06,1.88-0.08,3.4-0.06l1.07,13.95c-1.1-0.73-2.17-1.06-3.21-0.98
      c-1.31,0.1-2.4,0.67-3.26,1.7c-0.86,1.03-1.24,2.22-1.14,3.58c0.1,1.31,0.67,2.4,1.71,3.26c1.04,0.86,2.24,1.24,3.6,1.14
      c3.25-0.25,4.7-2.62,4.36-7.11L21.39,23.59z"></path>
    <path class="st0" d="M76.5,18.08c-0.37-0.33-0.44,0.01-0.89-0.12c-0.45-0.11-0.89-0.23-1.31-0.35c-1.15-0.15,1.32-0.97,0.25-1.68
      c-1.16-0.15-3.48-0.48-4.65-0.61c-1.08-0.95,1.37-1.58,0.28-2.53c-1.1-0.94-1.58-0.16-2.74-0.72c-1.78-0.37-1.18-0.56,0.34-0.62
      c1.52-0.1-0.42-0.61,1.39-0.46c-1.15-0.68,2.41,0.21,2.47-0.3c0.13-1.12,0.3-2.31-4.57-3.58c-1.21-0.4,0.09-1.13,0.14-1.69
      c-3.22-0.27-5.03-1-9.74-0.45l-2.54,0.19c-4.4,0.34-7.75,1.81-10.05,4.41c-1.32,1.49-2.15,2.95-2.51,4.38
      c-0.36,1.44-0.49,3.89-0.41,7.35c0.03,2.13-0.36,3.65-1.17,4.57c-0.8,0.91-2.22,1.45-4.25,1.6l-0.58,0.04l1.03,13.41l1.76-0.13
      c4.36-0.33,7.67-1.29,9.93-2.87c4.26-3.03,6.44-7.83,6.53-14.4c0.03-1.98,0.35-3.32,0.97-4.04c0.46-0.54,0.83-0.88,1.75-1.08
      c7.73-1.03,9.72-0.16,13.56,0.18c2.49,0.3,3.5,1.97,5.88,1.22"></path>
    <g>
      <rect x="29.04" y="10.34" transform="matrix(-0.9971 0.0764 -0.0764 -0.9971 63.1672 22.4916)" class="st1" width="4.22" height="4.22"></rect>
      <rect x="24.83" y="10.67" transform="matrix(-0.9971 0.0764 -0.0764 -0.9971 54.7867 23.4573)" class="st2" width="4.22" height="4.22"></rect>
      <rect x="28.74" y="6.12" transform="matrix(-0.9971 0.0764 -0.0764 -0.9971 62.2328 14.0714)" class="st2" width="4.22" height="4.22"></rect>
      <rect x="23.54" y="0.16" transform="matrix(-0.9971 0.0764 -0.0764 -0.9971 51.394 2.5648)" class="st3" width="4.22" height="4.22"></rect>
      <rect x="14.61" y="8.82" transform="matrix(-0.9971 0.0764 -0.0764 -0.9971 34.224 20.5422)" class="st4" width="4.22" height="4.22"></rect>
      <rect x="8.04" y="6.09" transform="matrix(-0.9971 0.0764 -0.0764 -0.9971 20.8978 15.592)" class="st5" width="4.22" height="4.22"></rect>
      <rect x="20.63" y="10.99" transform="matrix(-0.9971 0.0764 -0.0764 -0.9971 46.4061 24.4231)" class="st6" width="4.22" height="4.22"></rect>
      <rect x="11.21" y="14.73" transform="matrix(-0.9971 0.0764 -0.0764 -0.9971 27.8917 32.6104)" class="st6" width="4.22" height="4.22"></rect>
      <rect x="16.54" y="2.68" transform="matrix(-0.9971 0.0764 -0.0764 -0.9971 37.6113 8.1407)" class="st6" width="4.22" height="4.22"></rect>
      <rect x="24.53" y="6.44" transform="matrix(-0.9971 0.0764 -0.0764 -0.9971 53.8523 15.0372)" class="st6" width="4.22" height="4.22"></rect>
      <rect x="29.37" y="14.55" transform="matrix(-0.9971 0.0764 -0.0764 -0.9971 64.133 30.8721)" class="st7" width="4.22" height="4.22"></rect>
      <rect x="25.16" y="14.88" transform="matrix(-0.9971 0.0764 -0.0764 -0.9971 55.7525 31.8379)" class="st1" width="4.22" height="4.22"></rect>
      <rect x="20.95" y="15.2" transform="matrix(-0.9971 0.0764 -0.0764 -0.9971 47.3719 32.8037)" class="st2" width="4.22" height="4.22"></rect>
      <rect x="29.69" y="18.76" transform="matrix(-0.9971 0.0764 -0.0764 -0.9971 65.0988 39.2526)" class="st0" width="4.22" height="4.22"></rect>
      <rect x="25.48" y="19.08" transform="matrix(-0.9971 0.0764 -0.0764 -0.9971 56.7183 40.2184)" class="st7" width="4.22" height="4.22"></rect>
      <rect x="21.27" y="19.41" transform="matrix(-0.9971 0.0764 -0.0764 -0.9971 48.3377 41.1842)" class="st1" width="4.22" height="4.22"></rect>
    </g>
  </g>
</svg>